<?xml version="1.0" standalone="no"?>
<!DOCTYPE svg PUBLIC "-//W3C//DTD SVG 20010904//EN"
 "http://www.w3.org/TR/2001/REC-SVG-20010904/DTD/svg10.dtd">
<svg version="1.0" xmlns="http://www.w3.org/2000/svg"
 width="512.000000pt" height="512.000000pt" viewBox="0 0 512.000000 512.000000"
 preserveAspectRatio="xMidYMid meet">

<g transform="translate(0.000000,512.000000) scale(0.100000,-0.100000)"
fill="#000000" stroke="none">
<path d="M975 4546 c-67 -29 -105 -106 -91 -181 9 -47 59 -102 104 -115 26 -8
521 -10 1594 -8 1554 3 1557 3 1584 24 53 39 69 71 69 134 0 63 -16 95 -69
134 -27 21 -29 21 -1594 23 -1288 2 -1572 0 -1597 -11z"/>
<path d="M655 3746 c-67 -29 -105 -106 -91 -181 9 -47 59 -102 104 -115 26 -8
617 -10 1914 -8 l1877 3 27 21 c53 39 69 71 69 134 0 63 -16 95 -69 134 l-27
21 -1887 2 c-1554 2 -1892 0 -1917 -11z"/>
<path d="M660 2944 c-234 -50 -436 -254 -485 -489 -22 -103 -22 -1287 0 -1390
38 -181 168 -349 335 -433 139 -70 171 -73 650 -70 405 3 419 4 446 24 53 39
69 71 69 134 0 63 -16 95 -69 134 -26 20 -43 21 -459 26 l-432 5 -63 34 c-69
37 -109 79 -144 151 l-23 45 0 645 0 645 25 50 c31 64 91 124 155 155 l50 25
1845 0 1845 0 45 -23 c72 -35 114 -75 151 -144 l34 -63 0 -645 0 -645 -34 -63
c-38 -70 -69 -100 -145 -140 l-51 -27 -1072 -5 c-1063 -5 -1072 -5 -1099 -26
-53 -39 -69 -71 -69 -134 0 -63 16 -95 69 -134 27 -21 35 -21 1087 -24 1189
-3 1139 -5 1289 70 165 83 298 254 335 433 22 103 22 1287 0 1390 -37 179
-171 353 -335 434 -154 76 -14 71 -2055 70 -1527 0 -1841 -3 -1895 -15z"/>
<path d="M1615 2386 c-87 -40 -114 -128 -80 -261 45 -172 179 -305 352 -350
85 -22 1261 -22 1346 0 135 35 252 127 311 247 103 205 56 373 -104 373 -94 0
-145 -50 -160 -155 -9 -67 -28 -100 -74 -134 -27 -21 -37 -21 -646 -21 -609 0
-619 0 -646 21 -46 34 -65 67 -74 134 -9 66 -28 100 -72 133 -34 25 -113 32
-153 13z"/>
</g>
</svg>
