<?xml version="1.0" standalone="no"?>
<!DOCTYPE svg PUBLIC "-//W3C//DTD SVG 20010904//EN"
 "http://www.w3.org/TR/2001/REC-SVG-20010904/DTD/svg10.dtd">
<svg version="1.0" xmlns="http://www.w3.org/2000/svg"
 width="512.000000pt" height="512.000000pt" viewBox="0 0 512.000000 512.000000"
 preserveAspectRatio="xMidYMid meet">

<g transform="translate(0.000000,512.000000) scale(0.100000,-0.100000)"
fill="#000000" stroke="none">
<path d="M1415 4949 c-314 -41 -601 -184 -830 -414 -210 -209 -342 -456 -402
-752 -17 -81 -18 -173 -18 -1223 0 -1050 1 -1142 18 -1223 60 -296 192 -543
402 -752 206 -207 432 -329 733 -398 97 -22 98 -22 1237 -22 1060 0 1146 1
1229 18 296 60 541 191 751 402 207 206 329 432 398 733 22 97 22 98 22 1242
0 1144 0 1145 -22 1242 -69 301 -191 527 -398 733 -204 205 -433 330 -727 398
-92 21 -109 21 -1208 23 -627 1 -1146 -2 -1185 -7z m2278 -324 c298 -45 581
-223 754 -476 46 -66 110 -199 139 -286 53 -164 54 -183 54 -1303 0 -632 -4
-1062 -10 -1105 -42 -291 -187 -549 -410 -727 -149 -120 -343 -205 -530 -233
-140 -22 -2120 -22 -2260 0 -302 45 -583 223 -757 476 -85 124 -155 303 -178
459 -22 142 -22 2133 0 2265 45 277 189 524 407 699 144 116 339 202 518 231
131 20 2135 21 2273 0z"/>
<path d="M1215 3666 c-101 -44 -125 -178 -46 -257 112 -113 296 -12 267 146
-18 94 -131 151 -221 111z"/>
<path d="M1775 3666 c-67 -29 -105 -106 -91 -181 9 -47 59 -102 104 -115 25
-8 365 -10 1074 -8 1029 3 1037 3 1064 24 53 39 69 71 69 134 0 63 -16 95 -69
134 -27 21 -34 21 -1074 23 -855 2 -1053 0 -1077 -11z"/>
<path d="M1215 2706 c-101 -44 -125 -178 -46 -257 65 -65 157 -65 222 0 124
124 -15 327 -176 257z"/>
<path d="M1775 2706 c-67 -29 -105 -106 -91 -181 9 -47 59 -102 104 -115 25
-8 365 -10 1074 -8 1029 3 1037 3 1064 24 53 39 69 71 69 134 0 63 -16 95 -69
134 -27 21 -34 21 -1074 23 -855 2 -1053 0 -1077 -11z"/>
<path d="M1215 1746 c-101 -44 -125 -178 -46 -257 65 -65 157 -65 222 0 124
124 -15 327 -176 257z"/>
<path d="M1775 1746 c-67 -29 -105 -106 -91 -181 9 -47 59 -102 104 -115 25
-8 365 -10 1074 -8 1029 3 1037 3 1064 24 53 39 69 71 69 134 0 63 -16 95 -69
134 -27 21 -34 21 -1074 23 -855 2 -1053 0 -1077 -11z"/>
</g>
</svg>
