<?xml version="1.0" standalone="no"?>
<!DOCTYPE svg PUBLIC "-//W3C//DTD SVG 20010904//EN"
 "http://www.w3.org/TR/2001/REC-SVG-20010904/DTD/svg10.dtd">
<svg version="1.0" xmlns="http://www.w3.org/2000/svg"
 width="512.000000pt" height="512.000000pt" viewBox="0 0 512.000000 512.000000"
 preserveAspectRatio="xMidYMid meet">

<g transform="translate(0.000000,512.000000) scale(0.100000,-0.100000)"
fill="#000000" stroke="none">
<path d="M1300 4953 c-187 -20 -408 -101 -565 -206 -83 -56 -108 -77 -203
-170 -172 -169 -293 -394 -348 -647 -18 -81 -19 -153 -19 -1370 0 -1217 1
-1289 19 -1370 113 -515 491 -893 1006 -1006 81 -18 153 -19 1370 -19 1217 0
1289 1 1370 19 509 111 875 472 1003 986 21 84 21 104 24 1221 4 1251 6 1213
-57 1347 -16 35 -46 87 -67 114 -20 27 -233 234 -474 459 -587 548 -571 534
-664 580 -145 71 -97 69 -1290 67 -588 -1 -1086 -3 -1105 -5z m2060 -585 c0
-316 8 -369 71 -498 58 -117 161 -219 280 -278 135 -67 173 -72 577 -72 l353
0 -3 -1117 c-3 -1113 -3 -1118 -25 -1194 -87 -309 -296 -547 -574 -658 -176
-70 -77 -66 -1474 -66 -1184 0 -1265 1 -1335 18 -358 87 -620 342 -723 706
-22 76 -22 77 -25 1310 -2 1064 0 1246 13 1322 60 351 310 639 654 754 128 42
151 43 1204 44 l1007 1 0 -272z m675 -193 c171 -158 321 -299 335 -312 l25
-24 -240 3 -240 3 -63 34 c-69 37 -109 80 -144 151 -21 41 -23 62 -26 260 l-4
215 24 -21 c12 -11 163 -150 333 -309z"/>
<path d="M2495 3426 c-37 -17 -70 -52 -84 -89 -7 -18 -11 -138 -11 -322 l0
-294 -309 -3 c-295 -3 -311 -4 -337 -24 -53 -39 -69 -71 -69 -134 0 -63 16
-95 69 -134 26 -20 42 -21 336 -24 l309 -3 3 -309 c3 -294 4 -310 24 -336 39
-53 71 -69 134 -69 63 0 95 16 134 69 20 26 21 42 24 336 l3 309 309 3 c294 3
310 4 336 24 53 39 69 71 69 134 0 63 -16 95 -69 134 -26 20 -42 21 -336 24
l-309 3 -3 309 c-3 294 -4 310 -24 336 -11 15 -32 37 -46 47 -34 25 -113 32
-153 13z"/>
</g>
</svg>
